<svg width="609" height="147" viewBox="0 0 609 147" fill="none" xmlns="http://www.w3.org/2000/svg">
<path d="M192.72 99.864C193.52 99.864 194.192 100.152 194.736 100.728L200.448 106.824C197.632 110.408 194.128 113.128 189.936 114.984C185.776 116.84 180.816 117.768 175.056 117.768C169.84 117.768 165.152 116.888 160.992 115.128C156.832 113.336 153.296 110.856 150.384 107.688C147.472 104.52 145.232 100.76 143.664 96.408C142.096 92.056 141.312 87.304 141.312 82.152C141.312 78.696 141.68 75.416 142.416 72.312C143.184 69.176 144.288 66.296 145.728 63.672C147.168 61.048 148.896 58.68 150.912 56.568C152.96 54.456 155.264 52.664 157.824 51.192C160.384 49.688 163.168 48.552 166.176 47.784C169.216 46.984 172.448 46.584 175.872 46.584C178.432 46.584 180.848 46.808 183.12 47.256C185.424 47.704 187.568 48.328 189.552 49.128C191.536 49.928 193.36 50.904 195.024 52.056C196.72 53.176 198.24 54.408 199.584 55.752L194.736 62.376C194.448 62.792 194.08 63.16 193.632 63.48C193.184 63.8 192.576 63.96 191.808 63.96C191.04 63.96 190.256 63.688 189.456 63.144C188.688 62.6 187.728 61.992 186.576 61.32C185.456 60.648 184.032 60.04 182.304 59.496C180.608 58.952 178.448 58.68 175.824 58.68C172.912 58.68 170.24 59.208 167.808 60.264C165.376 61.32 163.28 62.856 161.52 64.872C159.792 66.856 158.448 69.304 157.488 72.216C156.528 75.128 156.048 78.44 156.048 82.152C156.048 85.896 156.56 89.24 157.584 92.184C158.64 95.096 160.064 97.56 161.856 99.576C163.68 101.592 165.792 103.128 168.192 104.184C170.624 105.208 173.216 105.72 175.968 105.72C177.6 105.72 179.072 105.64 180.384 105.48C181.728 105.32 182.96 105.048 184.08 104.664C185.232 104.28 186.304 103.784 187.296 103.176C188.32 102.568 189.344 101.8 190.368 100.872C190.72 100.584 191.088 100.344 191.472 100.152C191.856 99.96 192.272 99.864 192.72 99.864ZM302.273 47.352L280.673 117H267.665L253.409 71.448C253.185 70.808 252.961 70.104 252.737 69.336C252.513 68.568 252.305 67.752 252.113 66.888C251.921 67.752 251.713 68.568 251.489 69.336C251.265 70.104 251.041 70.808 250.817 71.448L236.417 117H223.361L201.809 47.352H213.905C215.153 47.352 216.193 47.64 217.025 48.216C217.889 48.792 218.449 49.56 218.705 50.52L229.505 89.784C229.761 90.872 230.017 92.056 230.273 93.336C230.561 94.584 230.833 95.912 231.089 97.32C231.377 95.88 231.681 94.536 232.001 93.288C232.321 92.04 232.673 90.872 233.057 89.784L245.633 50.52C245.889 49.72 246.433 49 247.265 48.36C248.129 47.688 249.169 47.352 250.385 47.352H254.609C255.857 47.352 256.865 47.656 257.633 48.264C258.433 48.84 259.025 49.592 259.409 50.52L271.937 89.784C272.321 90.808 272.673 91.928 272.993 93.144C273.313 94.328 273.617 95.592 273.905 96.936C274.161 95.592 274.401 94.328 274.625 93.144C274.881 91.928 275.137 90.808 275.393 89.784L286.193 50.52C286.417 49.688 286.961 48.952 287.825 48.312C288.689 47.672 289.729 47.352 290.945 47.352H302.273Z" fill="#047857"/>
<path d="M333.101 82.488C335.469 82.488 337.533 82.2 339.293 81.624C341.053 81.016 342.509 80.168 343.661 79.08C344.845 77.96 345.725 76.616 346.301 75.048C346.877 73.448 347.165 71.672 347.165 69.72C347.165 67.864 346.877 66.184 346.301 64.68C345.725 63.176 344.861 61.896 343.709 60.84C342.557 59.784 341.101 58.984 339.341 58.44C337.581 57.864 335.501 57.576 333.101 57.576H323.453V82.488H333.101ZM333.101 47.592C337.741 47.592 341.757 48.136 345.149 49.224C348.541 50.312 351.341 51.832 353.549 53.784C355.757 55.736 357.389 58.072 358.445 60.792C359.533 63.512 360.077 66.488 360.077 69.72C360.077 73.08 359.517 76.168 358.397 78.984C357.277 81.768 355.597 84.168 353.357 86.184C351.117 88.2 348.301 89.768 344.909 90.888C341.549 92.008 337.613 92.568 333.101 92.568H323.453V117H310.541V47.592H333.101ZM378.54 76.296C380.076 73.352 381.9 71.048 384.012 69.384C386.124 67.688 388.62 66.84 391.5 66.84C393.772 66.84 395.596 67.336 396.972 68.328L396.204 77.208C396.044 77.784 395.804 78.2 395.484 78.456C395.196 78.68 394.796 78.792 394.284 78.792C393.804 78.792 393.084 78.712 392.124 78.552C391.196 78.392 390.284 78.312 389.388 78.312C388.076 78.312 386.908 78.504 385.884 78.888C384.86 79.272 383.932 79.832 383.1 80.568C382.3 81.272 381.58 82.136 380.94 83.16C380.332 84.184 379.756 85.352 379.212 86.664V117H367.356V67.752H374.316C375.532 67.752 376.38 67.976 376.86 68.424C377.34 68.84 377.66 69.608 377.82 70.728L378.54 76.296ZM423.554 66.984C427.202 66.984 430.514 67.576 433.49 68.76C436.498 69.944 439.058 71.624 441.17 73.8C443.314 75.976 444.962 78.632 446.114 81.768C447.266 84.904 447.842 88.408 447.842 92.28C447.842 96.184 447.266 99.704 446.114 102.84C444.962 105.976 443.314 108.648 441.17 110.856C439.058 113.064 436.498 114.76 433.49 115.944C430.514 117.128 427.202 117.72 423.554 117.72C419.874 117.72 416.53 117.128 413.522 115.944C410.514 114.76 407.938 113.064 405.794 110.856C403.682 108.648 402.034 105.976 400.85 102.84C399.698 99.704 399.122 96.184 399.122 92.28C399.122 88.408 399.698 84.904 400.85 81.768C402.034 78.632 403.682 75.976 405.794 73.8C407.938 71.624 410.514 69.944 413.522 68.76C416.53 67.576 419.874 66.984 423.554 66.984ZM423.554 108.6C427.65 108.6 430.674 107.224 432.626 104.472C434.61 101.72 435.602 97.688 435.602 92.376C435.602 87.064 434.61 83.016 432.626 80.232C430.674 77.448 427.65 76.056 423.554 76.056C419.394 76.056 416.306 77.464 414.29 80.28C412.306 83.064 411.314 87.096 411.314 92.376C411.314 97.656 412.306 101.688 414.29 104.472C416.306 107.224 419.394 108.6 423.554 108.6ZM469.175 67.752V118.68C469.175 120.824 468.887 122.84 468.311 124.728C467.767 126.616 466.871 128.264 465.623 129.672C464.407 131.112 462.791 132.232 460.775 133.032C458.791 133.864 456.359 134.28 453.479 134.28C452.359 134.28 451.319 134.2 450.359 134.04C449.399 133.912 448.407 133.688 447.383 133.368L447.815 126.984C447.911 126.344 448.167 125.928 448.583 125.736C448.999 125.576 449.799 125.496 450.983 125.496C452.167 125.496 453.159 125.368 453.959 125.112C454.791 124.888 455.447 124.504 455.927 123.96C456.407 123.448 456.743 122.76 456.935 121.896C457.159 121.032 457.271 119.96 457.271 118.68V67.752H469.175ZM470.807 53.4C470.807 54.424 470.599 55.384 470.183 56.28C469.767 57.176 469.207 57.96 468.503 58.632C467.831 59.304 467.015 59.848 466.055 60.264C465.127 60.648 464.135 60.84 463.079 60.84C462.055 60.84 461.095 60.648 460.199 60.264C459.303 59.848 458.519 59.304 457.847 58.632C457.175 57.96 456.631 57.176 456.215 56.28C455.831 55.384 455.639 54.424 455.639 53.4C455.639 52.344 455.831 51.352 456.215 50.424C456.631 49.496 457.175 48.696 457.847 48.024C458.519 47.352 459.303 46.824 460.199 46.44C461.095 46.024 462.055 45.816 463.079 45.816C464.135 45.816 465.127 46.024 466.055 46.44C467.015 46.824 467.831 47.352 468.503 48.024C469.207 48.696 469.767 49.496 470.183 50.424C470.599 51.352 470.807 52.344 470.807 53.4ZM512.99 86.712C512.99 85.176 512.766 83.736 512.318 82.392C511.902 81.016 511.262 79.816 510.398 78.792C509.534 77.768 508.43 76.968 507.086 76.392C505.774 75.784 504.238 75.48 502.478 75.48C499.054 75.48 496.35 76.456 494.366 78.408C492.414 80.36 491.166 83.128 490.622 86.712H512.99ZM490.382 93.864C490.574 96.392 491.022 98.584 491.726 100.44C492.43 102.264 493.358 103.784 494.51 105C495.662 106.184 497.022 107.08 498.59 107.688C500.19 108.264 501.95 108.552 503.87 108.552C505.79 108.552 507.438 108.328 508.814 107.88C510.222 107.432 511.438 106.936 512.462 106.392C513.518 105.848 514.43 105.352 515.198 104.904C515.998 104.456 516.766 104.232 517.502 104.232C518.494 104.232 519.23 104.6 519.71 105.336L523.118 109.656C521.806 111.192 520.334 112.488 518.702 113.544C517.07 114.568 515.358 115.4 513.566 116.04C511.806 116.648 509.998 117.08 508.142 117.336C506.318 117.592 504.542 117.72 502.814 117.72C499.39 117.72 496.206 117.16 493.262 116.04C490.318 114.888 487.758 113.208 485.582 111C483.406 108.76 481.694 106.008 480.446 102.744C479.198 99.448 478.574 95.64 478.574 91.32C478.574 87.96 479.118 84.808 480.206 81.864C481.294 78.888 482.846 76.312 484.862 74.136C486.91 71.928 489.39 70.184 492.302 68.904C495.246 67.624 498.558 66.984 502.238 66.984C505.342 66.984 508.206 67.48 510.83 68.472C513.454 69.464 515.71 70.92 517.598 72.84C519.486 74.728 520.958 77.064 522.014 79.848C523.102 82.6 523.646 85.752 523.646 89.304C523.646 91.096 523.454 92.312 523.07 92.952C522.686 93.56 521.95 93.864 520.862 93.864H490.382ZM567.824 78.168C567.472 78.616 567.12 78.968 566.768 79.224C566.448 79.48 565.968 79.608 565.328 79.608C564.72 79.608 564.128 79.432 563.552 79.08C562.976 78.696 562.288 78.28 561.488 77.832C560.688 77.352 559.728 76.936 558.608 76.584C557.52 76.2 556.16 76.008 554.528 76.008C552.448 76.008 550.624 76.392 549.056 77.16C547.488 77.896 546.176 78.968 545.12 80.376C544.096 81.784 543.328 83.496 542.816 85.512C542.304 87.496 542.048 89.752 542.048 92.28C542.048 94.904 542.32 97.24 542.864 99.288C543.44 101.336 544.256 103.064 545.312 104.472C546.368 105.848 547.648 106.904 549.152 107.64C550.656 108.344 552.352 108.696 554.24 108.696C556.128 108.696 557.648 108.472 558.8 108.024C559.984 107.544 560.976 107.032 561.776 106.488C562.576 105.912 563.264 105.4 563.84 104.952C564.448 104.472 565.12 104.232 565.856 104.232C566.816 104.232 567.536 104.6 568.016 105.336L571.424 109.656C570.112 111.192 568.688 112.488 567.152 113.544C565.616 114.568 564.016 115.4 562.352 116.04C560.72 116.648 559.024 117.08 557.264 117.336C555.536 117.592 553.808 117.72 552.08 117.72C549.04 117.72 546.176 117.16 543.488 116.04C540.8 114.888 538.448 113.224 536.432 111.048C534.416 108.872 532.816 106.216 531.632 103.08C530.48 99.912 529.904 96.312 529.904 92.28C529.904 88.664 530.416 85.32 531.44 82.248C532.496 79.144 534.032 76.472 536.048 74.232C538.064 71.96 540.56 70.184 543.536 68.904C546.512 67.624 549.936 66.984 553.807 66.984C557.488 66.984 560.704 67.576 563.456 68.76C566.24 69.944 568.736 71.64 570.944 73.848L567.824 78.168ZM595.272 117.768C590.984 117.768 587.688 116.568 585.384 114.168C583.112 111.736 581.976 108.392 581.976 104.136V76.632H576.936C576.296 76.632 575.752 76.424 575.304 76.008C574.856 75.592 574.632 74.968 574.632 74.136V69.432L582.552 68.136L585.048 54.696C585.208 54.056 585.512 53.56 585.96 53.208C586.408 52.856 586.984 52.68 587.688 52.68H593.832V68.184H606.984V76.632H593.832V103.32C593.832 104.856 594.2 106.056 594.936 106.92C595.704 107.784 596.744 108.216 598.056 108.216C598.792 108.216 599.4 108.136 599.88 107.976C600.392 107.784 600.824 107.592 601.176 107.4C601.56 107.208 601.896 107.032 602.184 106.872C602.472 106.68 602.76 106.584 603.048 106.584C603.4 106.584 603.688 106.68 603.912 106.872C604.136 107.032 604.376 107.288 604.632 107.64L608.184 113.4C606.456 114.84 604.472 115.928 602.232 116.664C599.992 117.4 597.672 117.768 595.272 117.768Z" fill="black"/>
<mask id="mask0_0_1" style="mask-type:alpha" maskUnits="userSpaceOnUse" x="0" y="0" width="147" height="147">
<rect width="147" height="147" fill="#D9D9D9"/>
</mask>
<g mask="url(#mask0_0_1)">
<path d="M35.4879 111.651C30.8941 107.057 27.2957 101.749 24.6926 95.7256C22.0894 89.7027 20.7879 83.4756 20.7879 77.0444C20.7879 70.6131 22.0129 64.2584 24.4629 57.9803C26.9129 51.7022 30.8941 45.8069 36.4066 40.2944C39.9795 36.7214 44.3946 33.6589 49.6519 31.1069C54.9092 28.5548 61.1363 26.5386 68.3332 25.0584C75.5301 23.5782 83.7478 22.685 92.9863 22.3787C102.225 22.0725 112.561 22.4298 123.994 23.4506C124.811 34.2714 125.066 44.2246 124.76 53.31C124.453 62.3954 123.611 70.5876 122.233 77.8865C120.855 85.1855 118.915 91.5657 116.414 97.0272C113.913 102.489 110.825 107.057 107.15 110.732C101.74 116.142 95.9978 120.098 89.9238 122.599C83.8499 125.1 77.6483 126.351 71.3191 126.351C64.6837 126.351 58.2014 125.049 51.8722 122.446C45.5431 119.843 40.0816 116.244 35.4879 111.651ZM52.6379 109.201C55.5983 110.936 58.6353 112.187 61.7488 112.952C64.8624 113.718 68.0525 114.101 71.3191 114.101C76.015 114.101 80.6598 113.156 85.2535 111.268C89.8473 109.379 94.2368 106.342 98.4222 102.157C100.26 100.319 102.123 97.7418 104.011 94.424C105.9 91.1063 107.533 86.7678 108.911 81.4084C110.289 76.049 111.336 69.5668 112.05 61.9616C112.765 54.3563 112.867 45.2964 112.357 34.7819C107.355 34.5777 101.714 34.5011 95.4363 34.5522C89.1582 34.6032 82.9056 35.0881 76.6785 36.0069C70.4514 36.9256 64.5306 38.4058 58.916 40.4475C53.3014 42.4892 48.7077 45.2964 45.1347 48.8694C40.541 53.4631 37.3764 58.0058 35.641 62.4975C33.9056 66.9892 33.0379 71.3277 33.0379 75.5131C33.0379 81.536 34.1863 86.8188 36.4832 91.3615C38.7801 95.9043 40.7962 99.0944 42.5316 100.932C46.8191 92.7652 52.4847 84.9303 59.5285 77.4272C66.5722 69.924 74.79 63.7735 84.1816 58.9756C76.8316 65.4069 70.4259 72.6803 64.9644 80.7959C59.503 88.9115 55.3941 98.3798 52.6379 109.201Z" fill="#047857"/>
</g>
</svg>
